{
  "version": "0.1",
  "scores": [
    {
      "id": "path_pachelbel_canon",
      "name": "Canon in D",
      "duration": 44.31397480104167,
      "tempo": 42.00001260000378,
      "ppq": 960,
      "events": [
        {
          "id": "chord_0_A3_D3_D3_D5_F#4",
          "time": 0,
          "duration": 1.4568448010416666,
          "kind": "chord",
          "notes": [
            "A3",
            "D3",
            "D3",
            "D5",
            "F#4"
          ],
          "velocity": 0.6141732283464567,
          "channel": 0,
          "instrument": "piano"
        },
        {
          "id": "chord_1_A2_A2_A4_C#5_E3",
          "time": 1.428571,
          "duration": 1.4568448010416668,
          "kind": "chord",
          "notes": [
            "A2",
            "A2",
            "A4",
            "C#5",
            "E3"
          ],
          "velocity": 0.6535433070866141,
          "channel": 0,
          "instrument": "piano"
        },
        {
          "id": "chord_2_B2_B2_B4_D4_F#3",
          "time": 2.857142,
          "duration": 1.4568448010416666,
          "kind": "chord",
          "notes": [
            "B2",
            "B2",
            "B4",
            "D4",
            "F#3"
          ],
          "velocity": 0.7244094488188977,
          "channel": 0,
          "instrument": "piano"
        },
        {
          "id": "chord_3_A4_C#3_F#2_F#2_F#4",
          "time": 4.285713,
          "duration": 1.4568448010416661,
          "kind": "chord",
          "notes": [
            "A4",
            "C#3",
            "F#2",
            "F#2",
            "F#4"
          ],
          "velocity": 0.7559055118110236,
          "channel": 0,
          "instrument": "piano"
        },
        {
          "id": "chord_4_B3_D3_G2_G2_G4",
          "time": 5.714284,
          "duration": 1.4568448010416661,
          "kind": "chord",
          "notes": [
            "B3",
            "D3",
            "G2",
            "G2",
            "G4"
          ],
          "velocity": 0.7952755905511811,
          "channel": 0,
          "instrument": "piano"
        },
        {
          "id": "chord_5_A4_D2_D2_D3_F#4",
          "time": 7.142855,
          "duration": 1.4568448010416661,
          "kind": "chord",
          "notes": [
            "A4",
            "D2",
            "D2",
            "D3",
            "F#4"
          ],
          "velocity": 0.6456692913385826,
          "channel": 0,
          "instrument": "piano"
        },
        {
          "id": "chord_6_B4_D4_G2_G2_G3",
          "time": 8.571426,
          "duration": 1.4568448010416652,
          "kind": "chord",
          "notes": [
            "B4",
            "D4",
            "G2",
            "G2",
            "G3"
          ],
          "velocity": 0.6062992125984252,
          "channel": 0,
          "instrument": "piano"
        },
        {
          "id": "chord_7_A2_A2_A3_C#5_E4",
          "time": 9.999997,
          "duration": 1.3556543552083333,
          "kind": "chord",
          "notes": [
            "A2",
            "A2",
            "A3",
            "C#5",
            "E4"
          ],
          "velocity": 0.5039370078740157,
          "channel": 0,
          "instrument": "piano"
        },
        {
          "id": "chord_8_A4_D3_D3_D5_F#4_F#5",
          "time": 11.428568,
          "duration": 1.456844801041667,
          "kind": "chord",
          "notes": [
            "A4",
            "D3",
            "D3",
            "D5",
            "F#4",
            "F#5"
          ],
          "velocity": 0.49606299212598426,
          "channel": 0,
          "instrument": "piano"
        },
        {
          "id": "chord_9_A2_A2_A4_C#5_E4_E5",
          "time": 12.857139,
          "duration": 1.456844801041667,
          "kind": "chord",
          "notes": [
            "A2",
            "A2",
            "A4",
            "C#5",
            "E4",
            "E5"
          ],
          "velocity": 0.47244094488188976,
          "channel": 0,
          "instrument": "piano"
        },
        {
          "id": "chord_10_B2_B2_B4_D4_D5_F#4",
          "time": 14.28571,
          "duration": 1.456844801041667,
          "kind": "chord",
          "notes": [
            "B2",
            "B2",
            "B4",
            "D4",
            "D5",
            "F#4"
          ],
          "velocity": 0.49606299212598426,
          "channel": 0,
          "instrument": "piano"
        },
        {
          "id": "chord_11_A4_C#4_C#5_F#2_F#2_F#4",
          "time": 15.714281,
          "duration": 1.4568448010416688,
          "kind": "chord",
          "notes": [
            "A4",
            "C#4",
            "C#5",
            "F#2",
            "F#2",
            "F#4"
          ],
          "velocity": 0.48031496062992124,
          "channel": 0,
          "instrument": "piano"
        },
        {
          "id": "chord_12_B3_B4_D4_G2_G2_G4",
          "time": 17.142852,
          "duration": 1.4568448010416652,
          "kind": "chord",
          "notes": [
            "B3",
            "B4",
            "D4",
            "G2",
            "G2",
            "G4"
          ],
          "velocity": 0.49606299212598426,
          "channel": 0,
          "instrument": "piano"
        },
        {
          "id": "chord_13_A3_A4_D2_D2_D4_F#4",
          "time": 18.571423,
          "duration": 1.4568448010416688,
          "kind": "chord",
          "notes": [
            "A3",
            "A4",
            "D2",
            "D2",
            "D4",
            "F#4"
          ],
          "velocity": 0.48031496062992124,
          "channel": 0,
          "instrument": "piano"
        },
        {
          "id": "chord_14_B3_B4_D4_G2_G2_G4",
          "time": 19.999994,
          "duration": 1.4568448010416652,
          "kind": "chord",
          "notes": [
            "B3",
            "B4",
            "D4",
            "G2",
            "G2",
            "G4"
          ],
          "velocity": 0.5118110236220472,
          "channel": 0,
          "instrument": "piano"
        },
        {
          "id": "chord_15_A2_A2_A4_C#4_C#5_E4",
          "time": 21.428565,
          "duration": 1.3556543552083369,
          "kind": "chord",
          "notes": [
            "A2",
            "A2",
            "A4",
            "C#4",
            "C#5",
            "E4"
          ],
          "velocity": 0.5354330708661418,
          "channel": 0,
          "instrument": "piano"
        },
        {
          "id": "chord_16_D3_D3_D5_F#4_F#5_F#5",
          "time": 22.857136,
          "duration": 1.4568448010416652,
          "kind": "chord",
          "notes": [
            "D3",
            "D3",
            "D5",
            "F#4",
            "F#5",
            "F#5"
          ],
          "velocity": 0.5354330708661418,
          "channel": 0,
          "instrument": "piano"
        },
        {
          "id": "chord_17_A2_A2_C#5_E4_E5_E5",
          "time": 24.285707000000002,
          "duration": 1.4568448010416652,
          "kind": "chord",
          "notes": [
            "A2",
            "A2",
            "C#5",
            "E4",
            "E5",
            "E5"
          ],
          "velocity": 0.5039370078740157,
          "channel": 0,
          "instrument": "piano"
        },
        {
          "id": "chord_18_B2_B2_B4_D4_D5_D5",
          "time": 25.714278,
          "duration": 1.4568448010416652,
          "kind": "chord",
          "notes": [
            "B2",
            "B2",
            "B4",
            "D4",
            "D5",
            "D5"
          ],
          "velocity": 0.5039370078740157,
          "channel": 0,
          "instrument": "piano"
        },
        {
          "id": "chord_19_A4_C#4_C#5_C#5_F#2_F#2",
          "time": 27.142849000000002,
          "duration": 1.4568448010416652,
          "kind": "chord",
          "notes": [
            "A4",
            "C#4",
            "C#5",
            "C#5",
            "F#2",
            "F#2"
          ],
          "velocity": 0.48031496062992124,
          "channel": 0,
          "instrument": "piano"
        },
        {
          "id": "chord_20_B3_B4_B4_G2_G2_G4",
          "time": 28.57142,
          "duration": 1.4568448010416688,
          "kind": "chord",
          "notes": [
            "B3",
            "B4",
            "B4",
            "G2",
            "G2",
            "G4"
          ],
          "velocity": 0.5039370078740157,
          "channel": 0,
          "instrument": "piano"
        },
        {
          "id": "chord_21_A3_A4_A4_D2_D2_F#4",
          "time": 29.999991,
          "duration": 1.4568448010416652,
          "kind": "chord",
          "notes": [
            "A3",
            "A4",
            "A4",
            "D2",
            "D2",
            "F#4"
          ],
          "velocity": 0.47244094488188976,
          "channel": 0,
          "instrument": "piano"
        },
        {
          "id": "chord_22_B3_B4_B4_G2_G2_G4",
          "time": 31.428562,
          "duration": 1.4568448010416688,
          "kind": "chord",
          "notes": [
            "B3",
            "B4",
            "B4",
            "G2",
            "G2",
            "G4"
          ],
          "velocity": 0.49606299212598426,
          "channel": 0,
          "instrument": "piano"
        },
        {
          "id": "chord_23_A2_A2_C#4_C#5_C#5_E4",
          "time": 32.857133,
          "duration": 1.3556543552083369,
          "kind": "chord",
          "notes": [
            "A2",
            "A2",
            "C#4",
            "C#5",
            "C#5",
            "E4"
          ],
          "velocity": 0.5275590551181102,
          "channel": 0,
          "instrument": "piano"
        },
        {
          "id": "chord_24_D3_D3_D4_D5_D5_F#5_F#5",
          "time": 34.285704,
          "duration": 1.4568448010416617,
          "kind": "chord",
          "notes": [
            "D3",
            "D3",
            "D4",
            "D5",
            "D5",
            "F#5",
            "F#5"
          ],
          "velocity": 0.5433070866141733,
          "channel": 0,
          "instrument": "piano"
        },
        {
          "id": "note_25_F#4",
          "time": 34.9999895,
          "duration": 0.67559503541667,
          "kind": "note",
          "notes": [
            "F#4"
          ],
          "velocity": 0.5748031496062992,
          "channel": 0,
          "instrument": "piano"
        },
        {
          "id": "chord_26_A2_A2_A4_C#5_C#5_E5_E5",
          "time": 35.714275,
          "duration": 1.4568448010416688,
          "kind": "chord",
          "notes": [
            "A2",
            "A2",
            "A4",
            "C#5",
            "C#5",
            "E5",
            "E5"
          ],
          "velocity": 0.5826771653543307,
          "channel": 0,
          "instrument": "piano"
        },
        {
          "id": "note_27_G4",
          "time": 36.4285605,
          "duration": 0.6755950354166629,
          "kind": "note",
          "notes": [
            "G4"
          ],
          "velocity": 0.5826771653543307,
          "channel": 0,
          "instrument": "piano"
        },
        {
          "id": "chord_28_B2_B2_B4_B4_D5_D5_F#4",
          "time": 37.142846,
          "duration": 1.4568448010416688,
          "kind": "chord",
          "notes": [
            "B2",
            "B2",
            "B4",
            "B4",
            "D5",
            "D5",
            "F#4"
          ],
          "velocity": 0.5433070866141733,
          "channel": 0,
          "instrument": "piano"
        },
        {
          "id": "note_29_D4",
          "time": 37.8571315,
          "duration": 0.6755950354166629,
          "kind": "note",
          "notes": [
            "D4"
          ],
          "velocity": 0.5275590551181102,
          "channel": 0,
          "instrument": "piano"
        },
        {
          "id": "chord_30_A4_A4_C#5_C#5_F#2_F#2_F#4",
          "time": 38.571417000000004,
          "duration": 1.4568448010416617,
          "kind": "chord",
          "notes": [
            "A4",
            "A4",
            "C#5",
            "C#5",
            "F#2",
            "F#2",
            "F#4"
          ],
          "velocity": 0.5826771653543307,
          "channel": 0,
          "instrument": "piano"
        },
        {
          "id": "note_31_E4",
          "time": 39.2857025,
          "duration": 0.67559503541667,
          "kind": "note",
          "notes": [
            "E4"
          ],
          "velocity": 0.5511811023622047,
          "channel": 0,
          "instrument": "piano"
        },
        {
          "id": "chord_32_B4_B4_D4_G2_G2_G4_G4",
          "time": 39.999988,
          "duration": 1.4568448010416688,
          "kind": "chord",
          "notes": [
            "B4",
            "B4",
            "D4",
            "G2",
            "G2",
            "G4",
            "G4"
          ],
          "velocity": 0.5196850393700787,
          "channel": 0,
          "instrument": "piano"
        },
        {
          "id": "note_33_B3",
          "time": 40.714273500000004,
          "duration": 0.6755950354166629,
          "kind": "note",
          "notes": [
            "B3"
          ],
          "velocity": 0.5196850393700787,
          "channel": 0,
          "instrument": "piano"
        },
        {
          "id": "chord_34_A4_A4_D2_D2_D4_F#4_F#4",
          "time": 41.428559,
          "duration": 1.4568448010416688,
          "kind": "chord",
          "notes": [
            "A4",
            "A4",
            "D2",
            "D2",
            "D4",
            "F#4",
            "F#4"
          ],
          "velocity": 0.5826771653543307,
          "channel": 0,
          "instrument": "piano"
        },
        {
          "id": "note_35_A4",
          "time": 42.1428445,
          "duration": 0.6755950354166629,
          "kind": "note",
          "notes": [
            "A4"
          ],
          "velocity": 0.6456692913385826,
          "channel": 0,
          "instrument": "piano"
        },
        {
          "id": "chord_36_B4_B4_G2_G2_G4_G4_G4",
          "time": 42.85713,
          "duration": 1.4568448010416688,
          "kind": "chord",
          "notes": [
            "B4",
            "B4",
            "G2",
            "G2",
            "G4",
            "G4",
            "G4"
          ],
          "velocity": 0.5354330708661418,
          "channel": 0,
          "instrument": "piano"
        },
        {
          "id": "note_37_B4",
          "time": 43.5714155,
          "duration": 0.67559503541667,
          "kind": "note",
          "notes": [
            "B4"
          ],
          "velocity": 0.5511811023622047,
          "channel": 0,
          "instrument": "piano"
        }
      ],
      "tracks": [
        {
          "id": "merged",
          "name": "Piano",
          "channel": 0,
          "notes": [
            {
              "id": "midi_3_0_0",
              "time": 0,
              "duration": 1.4568448010416666,
              "note": "D3",
              "midi": 50,
              "ticks": 0,
              "durationTicks": 979,
              "velocity": 0.6141732283464567,
              "channel": 1,
              "trackIndex": 3,
              "trackName": "Cello"
            },
            {
              "id": "midi_4_0_0",
              "time": 0,
              "duration": 1.2886900895833333,
              "note": "F#4",
              "midi": 66,
              "ticks": 0,
              "durationTicks": 866,
              "velocity": 0.4251968503937008,
              "channel": 0,
              "trackIndex": 4,
              "trackName": "Keyboard"
            },
            {
              "id": "midi_4_0_1",
              "time": 0,
              "duration": 1.2886900895833333,
              "note": "D5",
              "midi": 74,
              "ticks": 0,
              "durationTicks": 866,
              "velocity": 0.4251968503937008,
              "channel": 0,
              "trackIndex": 4,
              "trackName": "Keyboard"
            },
            {
              "id": "midi_4_0_2",
              "time": 0,
              "duration": 1.2886900895833333,
              "note": "D3",
              "midi": 50,
              "ticks": 0,
              "durationTicks": 866,
              "velocity": 0.4330708661417323,
              "channel": 0,
              "trackIndex": 4,
              "trackName": "Keyboard"
            },
            {
              "id": "midi_4_0_3",
              "time": 0,
              "duration": 1.2886900895833333,
              "note": "A3",
              "midi": 57,
              "ticks": 0,
              "durationTicks": 866,
              "velocity": 0.4330708661417323,
              "channel": 0,
              "trackIndex": 4,
              "trackName": "Keyboard"
            },
            {
              "id": "midi_3_960_1",
              "time": 1.428571,
              "duration": 1.4568448010416668,
              "note": "A2",
              "midi": 45,
              "ticks": 960,
              "durationTicks": 979,
              "velocity": 0.6535433070866141,
              "channel": 1,
              "trackIndex": 3,
              "trackName": "Cello"
            },
            {
              "id": "midi_4_960_4",
              "time": 1.428571,
              "duration": 1.2886900895833333,
              "note": "A4",
              "midi": 69,
              "ticks": 960,
              "durationTicks": 866,
              "velocity": 0.47244094488188976,
              "channel": 0,
              "trackIndex": 4,
              "trackName": "Keyboard"
            },
            {
              "id": "midi_4_960_5",
              "time": 1.428571,
              "duration": 1.2886900895833333,
              "note": "C#5",
              "midi": 73,
              "ticks": 960,
              "durationTicks": 866,
              "velocity": 0.47244094488188976,
              "channel": 0,
              "trackIndex": 4,
              "trackName": "Keyboard"
            },
            {
              "id": "midi_4_960_6",
              "time": 1.428571,
              "duration": 1.2886900895833333,
              "note": "A2",
              "midi": 45,
              "ticks": 960,
              "durationTicks": 866,
              "velocity": 0.44881889763779526,
              "channel": 0,
              "trackIndex": 4,
              "trackName": "Keyboard"
            },
            {
              "id": "midi_4_960_7",
              "time": 1.428571,
              "duration": 1.2886900895833333,
              "note": "E3",
              "midi": 52,
              "ticks": 960,
              "durationTicks": 866,
              "velocity": 0.44881889763779526,
              "channel": 0,
              "trackIndex": 4,
              "trackName": "Keyboard"
            },
            {
              "id": "midi_3_1920_2",
              "time": 2.857142,
              "duration": 1.4568448010416666,
              "note": "B2",
              "midi": 47,
              "ticks": 1920,
              "durationTicks": 979,
              "velocity": 0.7244094488188977,
              "channel": 1,
              "trackIndex": 3,
              "trackName": "Cello"
            },
            {
              "id": "midi_4_1920_8",
              "time": 2.857142,
              "duration": 1.288690089583333,
              "note": "D4",
              "midi": 62,
              "ticks": 1920,
              "durationTicks": 866,
              "velocity": 0.4566929133858268,
              "channel": 0,
              "trackIndex": 4,
              "trackName": "Keyboard"
            },
            {
              "id": "midi_4_1920_9",
              "time": 2.857142,
              "duration": 1.288690089583333,
              "note": "B4",
              "midi": 71,
              "ticks": 1920,
              "durationTicks": 866,
              "velocity": 0.4566929133858268,
              "channel": 0,
              "trackIndex": 4,
              "trackName": "Keyboard"
            },
            {
              "id": "midi_4_1920_10",
              "time": 2.857142,
              "duration": 1.288690089583333,
              "note": "B2",
              "midi": 47,
              "ticks": 1920,
              "durationTicks": 866,
              "velocity": 0.47244094488188976,
              "channel": 0,
              "trackIndex": 4,
              "trackName": "Keyboard"
            },
            {
              "id": "midi_4_1920_11",
              "time": 2.857142,
              "duration": 1.288690089583333,
              "note": "F#3",
              "midi": 54,
              "ticks": 1920,
              "durationTicks": 866,
              "velocity": 0.47244094488188976,
              "channel": 0,
              "trackIndex": 4,
              "trackName": "Keyboard"
            },
            {
              "id": "midi_3_2880_3",
              "time": 4.285713,
              "duration": 1.4568448010416661,
              "note": "F#2",
              "midi": 42,
              "ticks": 2880,
              "durationTicks": 979,
              "velocity": 0.7559055118110236,
              "channel": 1,
              "trackIndex": 3,
              "trackName": "Cello"
            },
            {
              "id": "midi_4_2880_12",
              "time": 4.285713,
              "duration": 1.2886900895833326,
              "note": "F#4",
              "midi": 66,
              "ticks": 2880,
              "durationTicks": 866,
              "velocity": 0.47244094488188976,
              "channel": 0,
              "trackIndex": 4,
              "trackName": "Keyboard"
            },
            {
              "id": "midi_4_2880_13",
              "time": 4.285713,
              "duration": 1.2886900895833326,
              "note": "A4",
              "midi": 69,
              "ticks": 2880,
              "durationTicks": 866,
              "velocity": 0.47244094488188976,
              "channel": 0,
              "trackIndex": 4,
              "trackName": "Keyboard"
            },
            {
              "id": "midi_4_2880_14",
              "time": 4.285713,
              "duration": 1.2886900895833326,
              "note": "F#2",
              "midi": 42,
              "ticks": 2880,
              "durationTicks": 866,
              "velocity": 0.47244094488188976,
              "channel": 0,
              "trackIndex": 4,
              "trackName": "Keyboard"
            },
            {
              "id": "midi_4_2880_15",
              "time": 4.285713,
              "duration": 1.2886900895833326,
              "note": "C#3",
              "midi": 49,
              "ticks": 2880,
              "durationTicks": 866,
              "velocity": 0.47244094488188976,
              "channel": 0,
              "trackIndex": 4,
              "trackName": "Keyboard"
            },
            {
              "id": "midi_3_3840_4",
              "time": 5.714284,
              "duration": 1.4568448010416661,
              "note": "G2",
              "midi": 43,
              "ticks": 3840,
              "durationTicks": 979,
              "velocity": 0.7952755905511811,
              "channel": 1,
              "trackIndex": 3,
              "trackName": "Cello"
            },
            {
              "id": "midi_4_3840_16",
              "time": 5.714284,
              "duration": 1.2886900895833335,
              "note": "B3",
              "midi": 59,
              "ticks": 3840,
              "durationTicks": 866,
              "velocity": 0.47244094488188976,
              "channel": 0,
              "trackIndex": 4,
              "trackName": "Keyboard"
            },
            {
              "id": "midi_4_3840_17",
              "time": 5.714284,
              "duration": 1.2886900895833335,
              "note": "G4",
              "midi": 67,
              "ticks": 3840,
              "durationTicks": 866,
              "velocity": 0.47244094488188976,
              "channel": 0,
              "trackIndex": 4,
              "trackName": "Keyboard"
            },
            {
              "id": "midi_4_3840_18",
              "time": 5.714284,
              "duration": 1.2886900895833335,
              "note": "G2",
              "midi": 43,
              "ticks": 3840,
              "durationTicks": 866,
              "velocity": 0.4881889763779528,
              "channel": 0,
              "trackIndex": 4,
              "trackName": "Keyboard"
            },
            {
              "id": "midi_4_3840_19",
              "time": 5.714284,
              "duration": 1.2886900895833335,
              "note": "D3",
              "midi": 50,
              "ticks": 3840,
              "durationTicks": 866,
              "velocity": 0.4881889763779528,
              "channel": 0,
              "trackIndex": 4,
              "trackName": "Keyboard"
            },
            {
              "id": "midi_3_4800_5",
              "time": 7.142855,
              "duration": 1.4568448010416661,
              "note": "D2",
              "midi": 38,
              "ticks": 4800,
              "durationTicks": 979,
              "velocity": 0.6456692913385826,
              "channel": 1,
              "trackIndex": 3,
              "trackName": "Cello"
            },
            {
              "id": "midi_4_4800_20",
              "time": 7.142855,
              "duration": 1.2886900895833344,
              "note": "F#4",
              "midi": 66,
              "ticks": 4800,
              "durationTicks": 866,
              "velocity": 0.5039370078740157,
              "channel": 0,
              "trackIndex": 4,
              "trackName": "Keyboard"
            },
            {
              "id": "midi_4_4800_21",
              "time": 7.142855,
              "duration": 1.2886900895833344,
              "note": "A4",
              "midi": 69,
              "ticks": 4800,
              "durationTicks": 866,
              "velocity": 0.5039370078740157,
              "channel": 0,
              "trackIndex": 4,
              "trackName": "Keyboard"
            },
            {
              "id": "midi_4_4800_22",
              "time": 7.142855,
              "duration": 1.2886900895833344,
              "note": "D2",
              "midi": 38,
              "ticks": 4800,
              "durationTicks": 866,
              "velocity": 0.49606299212598426,
              "channel": 0,
              "trackIndex": 4,
              "trackName": "Keyboard"
            },
            {
              "id": "midi_4_4800_23",
              "time": 7.142855,
              "duration": 1.2886900895833344,
              "note": "D3",
              "midi": 50,
              "ticks": 4800,
              "durationTicks": 866,
              "velocity": 0.49606299212598426,
              "channel": 0,
              "trackIndex": 4,
              "trackName": "Keyboard"
            },
            {
              "id": "midi_3_5760_6",
              "time": 8.571426,
              "duration": 1.4568448010416652,
              "note": "G2",
              "midi": 43,
              "ticks": 5760,
              "durationTicks": 979,
              "velocity": 0.6062992125984252,
              "channel": 1,
              "trackIndex": 3,
              "trackName": "Cello"
            },
            {
              "id": "midi_4_5760_24",
              "time": 8.571426,
              "duration": 1.2886900895833335,
              "note": "D4",
              "midi": 62,
              "ticks": 5760,
              "durationTicks": 866,
              "velocity": 0.49606299212598426,
              "channel": 0,
              "trackIndex": 4,
              "trackName": "Keyboard"
            },
            {
              "id": "midi_4_5760_25",
              "time": 8.571426,
              "duration": 1.2886900895833335,
              "note": "B4",
              "midi": 71,
              "ticks": 5760,
              "durationTicks": 866,
              "velocity": 0.49606299212598426,
              "channel": 0,
              "trackIndex": 4,
              "trackName": "Keyboard"
            },
            {
              "id": "midi_4_5760_26",
              "time": 8.571426,
              "duration": 1.2886900895833335,
              "note": "G2",
              "midi": 43,
              "ticks": 5760,
              "durationTicks": 866,
              "velocity": 0.4881889763779528,
              "channel": 0,
              "trackIndex": 4,
              "trackName": "Keyboard"
            },
            {
              "id": "midi_4_5760_27",
              "time": 8.571426,
              "duration": 1.2886900895833335,
              "note": "G3",
              "midi": 55,
              "ticks": 5760,
              "durationTicks": 866,
              "velocity": 0.4881889763779528,
              "channel": 0,
              "trackIndex": 4,
              "trackName": "Keyboard"
            },
            {
              "id": "midi_3_6720_7",
              "time": 9.999997,
              "duration": 1.3556543552083333,
              "note": "A2",
              "midi": 45,
              "ticks": 6720,
              "durationTicks": 911,
              "velocity": 0.49606299212598426,
              "channel": 1,
              "trackIndex": 3,
              "trackName": "Cello"
            },
            {
              "id": "midi_4_6720_28",
              "time": 9.999997,
              "duration": 1.2886900895833335,
              "note": "E4",
              "midi": 64,
              "ticks": 6720,
              "durationTicks": 866,
              "velocity": 0.5039370078740157,
              "channel": 0,
              "trackIndex": 4,
              "trackName": "Keyboard"
            },
            {
              "id": "midi_4_6720_29",
              "time": 9.999997,
              "duration": 1.2886900895833335,
              "note": "C#5",
              "midi": 73,
              "ticks": 6720,
              "durationTicks": 866,
              "velocity": 0.5039370078740157,
              "channel": 0,
              "trackIndex": 4,
              "trackName": "Keyboard"
            },
            {
              "id": "midi_4_6720_30",
              "time": 9.999997,
              "duration": 1.2886900895833335,
              "note": "A2",
              "midi": 45,
              "ticks": 6720,
              "durationTicks": 866,
              "velocity": 0.48031496062992124,
              "channel": 0,
              "trackIndex": 4,
              "trackName": "Keyboard"
            },
            {
              "id": "midi_4_6720_31",
              "time": 9.999997,
              "duration": 1.2886900895833335,
              "note": "A3",
              "midi": 57,
              "ticks": 6720,
              "durationTicks": 866,
              "velocity": 0.48031496062992124,
              "channel": 0,
              "trackIndex": 4,
              "trackName": "Keyboard"
            },
            {
              "id": "midi_0_7680_0",
              "time": 11.428568,
              "duration": 1.456844801041667,
              "note": "F#5",
              "midi": 78,
              "ticks": 7680,
              "durationTicks": 979,
              "velocity": 0.4409448818897638,
              "channel": 2,
              "trackIndex": 0,
              "trackName": "Violin 1"
            },
            {
              "id": "midi_3_7680_8",
              "time": 11.428568,
              "duration": 1.456844801041667,
              "note": "D3",
              "midi": 50,
              "ticks": 7680,
              "durationTicks": 979,
              "velocity": 0.49606299212598426,
              "channel": 1,
              "trackIndex": 3,
              "trackName": "Cello"
            },
            {
              "id": "midi_4_7680_32",
              "time": 11.428568,
              "duration": 1.2886900895833335,
              "note": "F#4",
              "midi": 66,
              "ticks": 7680,
              "durationTicks": 866,
              "velocity": 0.49606299212598426,
              "channel": 0,
              "trackIndex": 4,
              "trackName": "Keyboard"
            },
            {
              "id": "midi_4_7680_33",
              "time": 11.428568,
              "duration": 1.2886900895833335,
              "note": "A4",
              "midi": 69,
              "ticks": 7680,
              "durationTicks": 866,
              "velocity": 0.49606299212598426,
              "channel": 0,
              "trackIndex": 4,
              "trackName": "Keyboard"
            },
            {
              "id": "midi_4_7680_34",
              "time": 11.428568,
              "duration": 1.2886900895833335,
              "note": "D5",
              "midi": 74,
              "ticks": 7680,
              "durationTicks": 866,
              "velocity": 0.49606299212598426,
              "channel": 0,
              "trackIndex": 4,
              "trackName": "Keyboard"
            },
            {
              "id": "midi_4_7680_35",
              "time": 11.428568,
              "duration": 1.2886900895833335,
              "note": "D3",
              "midi": 50,
              "ticks": 7680,
              "durationTicks": 866,
              "velocity": 0.4645669291338583,
              "channel": 0,
              "trackIndex": 4,
              "trackName": "Keyboard"
            },
            {
              "id": "midi_0_8640_1",
              "time": 12.857139,
              "duration": 1.456844801041667,
              "note": "E5",
              "midi": 76,
              "ticks": 8640,
              "durationTicks": 979,
              "velocity": 0.41732283464566927,
              "channel": 2,
              "trackIndex": 0,
              "trackName": "Violin 1"
            },
            {
              "id": "midi_3_8640_9",
              "time": 12.857139,
              "duration": 1.456844801041667,
              "note": "A2",
              "midi": 45,
              "ticks": 8640,
              "durationTicks": 979,
              "velocity": 0.47244094488188976,
              "channel": 1,
              "trackIndex": 3,
              "trackName": "Cello"
            },
            {
              "id": "midi_4_8640_36",
              "time": 12.857139,
              "duration": 1.2886900895833335,
              "note": "E4",
              "midi": 64,
              "ticks": 8640,
              "durationTicks": 866,
              "velocity": 0.47244094488188976,
              "channel": 0,
              "trackIndex": 4,
              "trackName": "Keyboard"
            },
            {
              "id": "midi_4_8640_37",
              "time": 12.857139,
              "duration": 1.2886900895833335,
              "note": "A4",
              "midi": 69,
              "ticks": 8640,
              "durationTicks": 866,
              "velocity": 0.47244094488188976,
              "channel": 0,
              "trackIndex": 4,
              "trackName": "Keyboard"
            },
            {
              "id": "midi_4_8640_38",
              "time": 12.857139,
              "duration": 1.2886900895833335,
              "note": "C#5",
              "midi": 73,
              "ticks": 8640,
              "durationTicks": 866,
              "velocity": 0.47244094488188976,
              "channel": 0,
              "trackIndex": 4,
              "trackName": "Keyboard"
            },
            {
              "id": "midi_4_8640_39",
              "time": 12.857139,
              "duration": 1.2886900895833335,
              "note": "A2",
              "midi": 45,
              "ticks": 8640,
              "durationTicks": 866,
              "velocity": 0.47244094488188976,
              "channel": 0,
              "trackIndex": 4,
              "trackName": "Keyboard"
            },
            {
              "id": "midi_0_9600_2",
              "time": 14.28571,
              "duration": 1.456844801041667,
              "note": "D5",
              "midi": 74,
              "ticks": 9600,
              "durationTicks": 979,
              "velocity": 0.47244094488188976,
              "channel": 2,
              "trackIndex": 0,
              "trackName": "Violin 1"
            },
            {
              "id": "midi_3_9600_10",
              "time": 14.28571,
              "duration": 1.456844801041667,
              "note": "B2",
              "midi": 47,
              "ticks": 9600,
              "durationTicks": 979,
              "velocity": 0.49606299212598426,
              "channel": 1,
              "trackIndex": 3,
              "trackName": "Cello"
            },
            {
              "id": "midi_4_9600_40",
              "time": 14.28571,
              "duration": 1.2886900895833335,
              "note": "D4",
              "midi": 62,
              "ticks": 9600,
              "durationTicks": 866,
              "velocity": 0.47244094488188976,
              "channel": 0,
              "trackIndex": 4,
              "trackName": "Keyboard"
            },
            {
              "id": "midi_4_9600_41",
              "time": 14.28571,
              "duration": 1.2886900895833335,
              "note": "F#4",
              "midi": 66,
              "ticks": 9600,
              "durationTicks": 866,
              "velocity": 0.47244094488188976,
              "channel": 0,
              "trackIndex": 4,
              "trackName": "Keyboard"
            },
            {
              "id": "midi_4_9600_42",
              "time": 14.28571,
              "duration": 1.2886900895833335,
              "note": "B4",
              "midi": 71,
              "ticks": 9600,
              "durationTicks": 866,
              "velocity": 0.47244094488188976,
              "channel": 0,
              "trackIndex": 4,
              "trackName": "Keyboard"
            },
            {
              "id": "midi_4_9600_43",
              "time": 14.28571,
              "duration": 1.2886900895833335,
              "note": "B2",
              "midi": 47,
              "ticks": 9600,
              "durationTicks": 866,
              "velocity": 0.48031496062992124,
              "channel": 0,
              "trackIndex": 4,
              "trackName": "Keyboard"
            },
            {
              "id": "midi_0_10560_3",
              "time": 15.714281,
              "duration": 1.4568448010416688,
              "note": "C#5",
              "midi": 73,
              "ticks": 10560,
              "durationTicks": 979,
              "velocity": 0.4645669291338583,
              "channel": 2,
              "trackIndex": 0,
              "trackName": "Violin 1"
            },
            {
              "id": "midi_3_10560_11",
              "time": 15.714281,
              "duration": 1.4568448010416688,
              "note": "F#2",
              "midi": 42,
              "ticks": 10560,
              "durationTicks": 979,
              "velocity": 0.48031496062992124,
              "channel": 1,
              "trackIndex": 3,
              "trackName": "Cello"
            },
            {
              "id": "midi_4_10560_44",
              "time": 15.714281,
              "duration": 1.2886900895833335,
              "note": "C#4",
              "midi": 61,
              "ticks": 10560,
              "durationTicks": 866,
              "velocity": 0.4645669291338583,
              "channel": 0,
              "trackIndex": 4,
              "trackName": "Keyboard"
            },
            {
              "id": "midi_4_10560_45",
              "time": 15.714281,
              "duration": 1.2886900895833335,
              "note": "F#4",
              "midi": 66,
              "ticks": 10560,
              "durationTicks": 866,
              "velocity": 0.4645669291338583,
              "channel": 0,
              "trackIndex": 4,
              "trackName": "Keyboard"
            },
            {
              "id": "midi_4_10560_46",
              "time": 15.714281,
              "duration": 1.2886900895833335,
              "note": "A4",
              "midi": 69,
              "ticks": 10560,
              "durationTicks": 866,
              "velocity": 0.4645669291338583,
              "channel": 0,
              "trackIndex": 4,
              "trackName": "Keyboard"
            },
            {
              "id": "midi_4_10560_47",
              "time": 15.714281,
              "duration": 1.2886900895833335,
              "note": "F#2",
              "midi": 42,
              "ticks": 10560,
              "durationTicks": 866,
              "velocity": 0.4645669291338583,
              "channel": 0,
              "trackIndex": 4,
              "trackName": "Keyboard"
            },
            {
              "id": "midi_0_11520_4",
              "time": 17.142852,
              "duration": 1.4568448010416652,
              "note": "B4",
              "midi": 71,
              "ticks": 11520,
              "durationTicks": 979,
              "velocity": 0.4645669291338583,
              "channel": 2,
              "trackIndex": 0,
              "trackName": "Violin 1"
            },
            {
              "id": "midi_3_11520_12",
              "time": 17.142852,
              "duration": 1.4568448010416652,
              "note": "G2",
              "midi": 43,
              "ticks": 11520,
              "durationTicks": 979,
              "velocity": 0.4881889763779528,
              "channel": 1,
              "trackIndex": 3,
              "trackName": "Cello"
            },
            {
              "id": "midi_4_11520_48",
              "time": 17.142852,
              "duration": 1.2886900895833335,
              "note": "B3",
              "midi": 59,
              "ticks": 11520,
              "durationTicks": 866,
              "velocity": 0.47244094488188976,
              "channel": 0,
              "trackIndex": 4,
              "trackName": "Keyboard"
            },
            {
              "id": "midi_4_11520_49",
              "time": 17.142852,
              "duration": 1.2886900895833335,
              "note": "D4",
              "midi": 62,
              "ticks": 11520,
              "durationTicks": 866,
              "velocity": 0.47244094488188976,
              "channel": 0,
              "trackIndex": 4,
              "trackName": "Keyboard"
            },
            {
              "id": "midi_4_11520_50",
              "time": 17.142852,
              "duration": 1.2886900895833335,
              "note": "G4",
              "midi": 67,
              "ticks": 11520,
              "durationTicks": 866,
              "velocity": 0.47244094488188976,
              "channel": 0,
              "trackIndex": 4,
              "trackName": "Keyboard"
            },
            {
              "id": "midi_4_11520_51",
              "time": 17.142852,
              "duration": 1.2886900895833335,
              "note": "G2",
              "midi": 43,
              "ticks": 11520,
              "durationTicks": 866,
              "velocity": 0.49606299212598426,
              "channel": 0,
              "trackIndex": 4,
              "trackName": "Keyboard"
            },
            {
              "id": "midi_0_12480_5",
              "time": 18.571423,
              "duration": 1.4568448010416688,
              "note": "A4",
              "midi": 69,
              "ticks": 12480,
              "durationTicks": 979,
              "velocity": 0.4409448818897638,
              "channel": 2,
              "trackIndex": 0,
              "trackName": "Violin 1"
            },
            {
              "id": "midi_3_12480_13",
              "time": 18.571423,
              "duration": 1.4568448010416688,
              "note": "D2",
              "midi": 38,
              "ticks": 12480,
              "durationTicks": 979,
              "velocity": 0.4645669291338583,
              "channel": 1,
              "trackIndex": 3,
              "trackName": "Cello"
            },
            {
              "id": "midi_4_12480_52",
              "time": 18.571423,
              "duration": 1.2886900895833335,
              "note": "A3",
              "midi": 57,
              "ticks": 12480,
              "durationTicks": 866,
              "velocity": 0.48031496062992124,
              "channel": 0,
              "trackIndex": 4,
              "trackName": "Keyboard"
            },
            {
              "id": "midi_4_12480_53",
              "time": 18.571423,
              "duration": 1.2886900895833335,
              "note": "D4",
              "midi": 62,
              "ticks": 12480,
              "durationTicks": 866,
              "velocity": 0.48031496062992124,
              "channel": 0,
              "trackIndex": 4,
              "trackName": "Keyboard"
            },
            {
              "id": "midi_4_12480_54",
              "time": 18.571423,
              "duration": 1.2886900895833335,
              "note": "F#4",
              "midi": 66,
              "ticks": 12480,
              "durationTicks": 866,
              "velocity": 0.48031496062992124,
              "channel": 0,
              "trackIndex": 4,
              "trackName": "Keyboard"
            },
            {
              "id": "midi_4_12480_55",
              "time": 18.571423,
              "duration": 1.2886900895833335,
              "note": "D2",
              "midi": 38,
              "ticks": 12480,
              "durationTicks": 866,
              "velocity": 0.4645669291338583,
              "channel": 0,
              "trackIndex": 4,
              "trackName": "Keyboard"
            },
            {
              "id": "midi_0_13440_6",
              "time": 19.999994,
              "duration": 1.4568448010416652,
              "note": "B4",
              "midi": 71,
              "ticks": 13440,
              "durationTicks": 979,
              "velocity": 0.49606299212598426,
              "channel": 2,
              "trackIndex": 0,
              "trackName": "Violin 1"
            },
            {
              "id": "midi_3_13440_14",
              "time": 19.999994,
              "duration": 1.4568448010416652,
              "note": "G2",
              "midi": 43,
              "ticks": 13440,
              "durationTicks": 979,
              "velocity": 0.5039370078740157,
              "channel": 1,
              "trackIndex": 3,
              "trackName": "Cello"
            },
            {
              "id": "midi_4_13440_56",
              "time": 19.999994,
              "duration": 1.2886900895833335,
              "note": "B3",
              "midi": 59,
              "ticks": 13440,
              "durationTicks": 866,
              "velocity": 0.48031496062992124,
              "channel": 0,
              "trackIndex": 4,
              "trackName": "Keyboard"
            },
            {
              "id": "midi_4_13440_57",
              "time": 19.999994,
              "duration": 1.2886900895833335,
              "note": "D4",
              "midi": 62,
              "ticks": 13440,
              "durationTicks": 866,
              "velocity": 0.48031496062992124,
              "channel": 0,
              "trackIndex": 4,
              "trackName": "Keyboard"
            },
            {
              "id": "midi_4_13440_58",
              "time": 19.999994,
              "duration": 1.2886900895833335,
              "note": "G4",
              "midi": 67,
              "ticks": 13440,
              "durationTicks": 866,
              "velocity": 0.48031496062992124,
              "channel": 0,
              "trackIndex": 4,
              "trackName": "Keyboard"
            },
            {
              "id": "midi_4_13440_59",
              "time": 19.999994,
              "duration": 1.2886900895833335,
              "note": "G2",
              "midi": 43,
              "ticks": 13440,
              "durationTicks": 866,
              "velocity": 0.5118110236220472,
              "channel": 0,
              "trackIndex": 4,
              "trackName": "Keyboard"
            },
            {
              "id": "midi_0_14400_7",
              "time": 21.428565,
              "duration": 1.3556543552083369,
              "note": "C#5",
              "midi": 73,
              "ticks": 14400,
              "durationTicks": 911,
              "velocity": 0.5354330708661418,
              "channel": 2,
              "trackIndex": 0,
              "trackName": "Violin 1"
            },
            {
              "id": "midi_3_14400_15",
              "time": 21.428565,
              "duration": 1.3556543552083369,
              "note": "A2",
              "midi": 45,
              "ticks": 14400,
              "durationTicks": 911,
              "velocity": 0.5354330708661418,
              "channel": 1,
              "trackIndex": 3,
              "trackName": "Cello"
            },
            {
              "id": "midi_4_14400_60",
              "time": 21.428565,
              "duration": 1.2886900895833335,
              "note": "C#4",
              "midi": 61,
              "ticks": 14400,
              "durationTicks": 866,
              "velocity": 0.49606299212598426,
              "channel": 0,
              "trackIndex": 4,
              "trackName": "Keyboard"
            },
            {
              "id": "midi_4_14400_61",
              "time": 21.428565,
              "duration": 1.2886900895833335,
              "note": "E4",
              "midi": 64,
              "ticks": 14400,
              "durationTicks": 866,
              "velocity": 0.49606299212598426,
              "channel": 0,
              "trackIndex": 4,
              "trackName": "Keyboard"
            },
            {
              "id": "midi_4_14400_62",
              "time": 21.428565,
              "duration": 1.2886900895833335,
              "note": "A4",
              "midi": 69,
              "ticks": 14400,
              "durationTicks": 866,
              "velocity": 0.49606299212598426,
              "channel": 0,
              "trackIndex": 4,
              "trackName": "Keyboard"
            },
            {
              "id": "midi_4_14400_63",
              "time": 21.428565,
              "duration": 1.2886900895833335,
              "note": "A2",
              "midi": 45,
              "ticks": 14400,
              "durationTicks": 866,
              "velocity": 0.49606299212598426,
              "channel": 0,
              "trackIndex": 4,
              "trackName": "Keyboard"
            },
            {
              "id": "midi_0_15360_8",
              "time": 22.857136,
              "duration": 1.2886900895833335,
              "note": "D5",
              "midi": 74,
              "ticks": 15360,
              "durationTicks": 866,
              "velocity": 0.4881889763779528,
              "channel": 2,
              "trackIndex": 0,
              "trackName": "Violin 1"
            },
            {
              "id": "midi_1_15360_0",
              "time": 22.857136,
              "duration": 1.4568448010416652,
              "note": "F#5",
              "midi": 78,
              "ticks": 15360,
              "durationTicks": 979,
              "velocity": 0.44881889763779526,
              "channel": 3,
              "trackIndex": 1,
              "trackName": "Violin 2"
            },
            {
              "id": "midi_3_15360_16",
              "time": 22.857136,
              "duration": 1.4568448010416652,
              "note": "D3",
              "midi": 50,
              "ticks": 15360,
              "durationTicks": 979,
              "velocity": 0.5039370078740157,
              "channel": 1,
              "trackIndex": 3,
              "trackName": "Cello"
            },
            {
              "id": "midi_4_15360_64",
              "time": 22.857136,
              "duration": 1.2886900895833335,
              "note": "F#4",
              "midi": 66,
              "ticks": 15360,
              "durationTicks": 866,
              "velocity": 0.5354330708661418,
              "channel": 0,
              "trackIndex": 4,
              "trackName": "Keyboard"
            },
            {
              "id": "midi_4_15360_65",
              "time": 22.857136,
              "duration": 1.2886900895833335,
              "note": "F#5",
              "midi": 78,
              "ticks": 15360,
              "durationTicks": 866,
              "velocity": 0.5354330708661418,
              "channel": 0,
              "trackIndex": 4,
              "trackName": "Keyboard"
            },
            {
              "id": "midi_4_15360_66",
              "time": 22.857136,
              "duration": 1.2886900895833335,
              "note": "D3",
              "midi": 50,
              "ticks": 15360,
              "durationTicks": 866,
              "velocity": 0.5039370078740157,
              "channel": 0,
              "trackIndex": 4,
              "trackName": "Keyboard"
            },
            {
              "id": "midi_0_16320_9",
              "time": 24.285707000000002,
              "duration": 1.2886900895833335,
              "note": "C#5",
              "midi": 73,
              "ticks": 16320,
              "durationTicks": 866,
              "velocity": 0.4566929133858268,
              "channel": 2,
              "trackIndex": 0,
              "trackName": "Violin 1"
            },
            {
              "id": "midi_1_16320_1",
              "time": 24.285707000000002,
              "duration": 1.4568448010416652,
              "note": "E5",
              "midi": 76,
              "ticks": 16320,
              "durationTicks": 979,
              "velocity": 0.4251968503937008,
              "channel": 3,
              "trackIndex": 1,
              "trackName": "Violin 2"
            },
            {
              "id": "midi_3_16320_17",
              "time": 24.285707000000002,
              "duration": 1.4568448010416652,
              "note": "A2",
              "midi": 45,
              "ticks": 16320,
              "durationTicks": 979,
              "velocity": 0.5039370078740157,
              "channel": 1,
              "trackIndex": 3,
              "trackName": "Cello"
            },
            {
              "id": "midi_4_16320_67",
              "time": 24.285707000000002,
              "duration": 1.2886900895833335,
              "note": "E4",
              "midi": 64,
              "ticks": 16320,
              "durationTicks": 866,
              "velocity": 0.4566929133858268,
              "channel": 0,
              "trackIndex": 4,
              "trackName": "Keyboard"
            },
            {
              "id": "midi_4_16320_68",
              "time": 24.285707000000002,
              "duration": 1.2886900895833335,
              "note": "E5",
              "midi": 76,
              "ticks": 16320,
              "durationTicks": 866,
              "velocity": 0.4566929133858268,
              "channel": 0,
              "trackIndex": 4,
              "trackName": "Keyboard"
            },
            {
              "id": "midi_4_16320_69",
              "time": 24.285707000000002,
              "duration": 1.2886900895833335,
              "note": "A2",
              "midi": 45,
              "ticks": 16320,
              "durationTicks": 866,
              "velocity": 0.48031496062992124,
              "channel": 0,
              "trackIndex": 4,
              "trackName": "Keyboard"
            },
            {
              "id": "midi_0_17280_10",
              "time": 25.714278,
              "duration": 1.2886900895833335,
              "note": "B4",
              "midi": 71,
              "ticks": 17280,
              "durationTicks": 866,
              "velocity": 0.4566929133858268,
              "channel": 2,
              "trackIndex": 0,
              "trackName": "Violin 1"
            },
            {
              "id": "midi_1_17280_2",
              "time": 25.714278,
              "duration": 1.4568448010416652,
              "note": "D5",
              "midi": 74,
              "ticks": 17280,
              "durationTicks": 979,
              "velocity": 0.4645669291338583,
              "channel": 3,
              "trackIndex": 1,
              "trackName": "Violin 2"
            },
            {
              "id": "midi_3_17280_18",
              "time": 25.714278,
              "duration": 1.4568448010416652,
              "note": "B2",
              "midi": 47,
              "ticks": 17280,
              "durationTicks": 979,
              "velocity": 0.5039370078740157,
              "channel": 1,
              "trackIndex": 3,
              "trackName": "Cello"
            },
            {
              "id": "midi_4_17280_70",
              "time": 25.714278,
              "duration": 1.2886900895833335,
              "note": "D4",
              "midi": 62,
              "ticks": 17280,
              "durationTicks": 866,
              "velocity": 0.4566929133858268,
              "channel": 0,
              "trackIndex": 4,
              "trackName": "Keyboard"
            },
            {
              "id": "midi_4_17280_71",
              "time": 25.714278,
              "duration": 1.2886900895833335,
              "note": "D5",
              "midi": 74,
              "ticks": 17280,
              "durationTicks": 866,
              "velocity": 0.4566929133858268,
              "channel": 0,
              "trackIndex": 4,
              "trackName": "Keyboard"
            },
            {
              "id": "midi_4_17280_72",
              "time": 25.714278,
              "duration": 1.2886900895833335,
              "note": "B2",
              "midi": 47,
              "ticks": 17280,
              "durationTicks": 866,
              "velocity": 0.48031496062992124,
              "channel": 0,
              "trackIndex": 4,
              "trackName": "Keyboard"
            },
            {
              "id": "midi_0_18240_11",
              "time": 27.142849000000002,
              "duration": 1.2886900895833335,
              "note": "A4",
              "midi": 69,
              "ticks": 18240,
              "durationTicks": 866,
              "velocity": 0.4645669291338583,
              "channel": 2,
              "trackIndex": 0,
              "trackName": "Violin 1"
            },
            {
              "id": "midi_1_18240_3",
              "time": 27.142849000000002,
              "duration": 1.4568448010416652,
              "note": "C#5",
              "midi": 73,
              "ticks": 18240,
              "durationTicks": 979,
              "velocity": 0.44881889763779526,
              "channel": 3,
              "trackIndex": 1,
              "trackName": "Violin 2"
            },
            {
              "id": "midi_3_18240_19",
              "time": 27.142849000000002,
              "duration": 1.4568448010416652,
              "note": "F#2",
              "midi": 42,
              "ticks": 18240,
              "durationTicks": 979,
              "velocity": 0.48031496062992124,
              "channel": 1,
              "trackIndex": 3,
              "trackName": "Cello"
            },
            {
              "id": "midi_4_18240_73",
              "time": 27.142849000000002,
              "duration": 1.2886900895833335,
              "note": "C#4",
              "midi": 61,
              "ticks": 18240,
              "durationTicks": 866,
              "velocity": 0.48031496062992124,
              "channel": 0,
              "trackIndex": 4,
              "trackName": "Keyboard"
            },
            {
              "id": "midi_4_18240_74",
              "time": 27.142849000000002,
              "duration": 1.2886900895833335,
              "note": "C#5",
              "midi": 73,
              "ticks": 18240,
              "durationTicks": 866,
              "velocity": 0.48031496062992124,
              "channel": 0,
              "trackIndex": 4,
              "trackName": "Keyboard"
            },
            {
              "id": "midi_4_18240_75",
              "time": 27.142849000000002,
              "duration": 1.2886900895833335,
              "note": "F#2",
              "midi": 42,
              "ticks": 18240,
              "durationTicks": 866,
              "velocity": 0.4645669291338583,
              "channel": 0,
              "trackIndex": 4,
              "trackName": "Keyboard"
            },
            {
              "id": "midi_0_19200_12",
              "time": 28.57142,
              "duration": 1.2886900895833335,
              "note": "G4",
              "midi": 67,
              "ticks": 19200,
              "durationTicks": 866,
              "velocity": 0.47244094488188976,
              "channel": 2,
              "trackIndex": 0,
              "trackName": "Violin 1"
            },
            {
              "id": "midi_1_19200_4",
              "time": 28.57142,
              "duration": 1.4568448010416688,
              "note": "B4",
              "midi": 71,
              "ticks": 19200,
              "durationTicks": 979,
              "velocity": 0.4566929133858268,
              "channel": 3,
              "trackIndex": 1,
              "trackName": "Violin 2"
            },
            {
              "id": "midi_3_19200_20",
              "time": 28.57142,
              "duration": 1.4568448010416688,
              "note": "G2",
              "midi": 43,
              "ticks": 19200,
              "durationTicks": 979,
              "velocity": 0.48031496062992124,
              "channel": 1,
              "trackIndex": 3,
              "trackName": "Cello"
            },
            {
              "id": "midi_4_19200_76",
              "time": 28.57142,
              "duration": 1.2886900895833335,
              "note": "B3",
              "midi": 59,
              "ticks": 19200,
              "durationTicks": 866,
              "velocity": 0.48031496062992124,
              "channel": 0,
              "trackIndex": 4,
              "trackName": "Keyboard"
            },
            {
              "id": "midi_4_19200_77",
              "time": 28.57142,
              "duration": 1.2886900895833335,
              "note": "B4",
              "midi": 71,
              "ticks": 19200,
              "durationTicks": 866,
              "velocity": 0.48031496062992124,
              "channel": 0,
              "trackIndex": 4,
              "trackName": "Keyboard"
            },
            {
              "id": "midi_4_19200_78",
              "time": 28.57142,
              "duration": 1.2886900895833335,
              "note": "G2",
              "midi": 43,
              "ticks": 19200,
              "durationTicks": 866,
              "velocity": 0.5039370078740157,
              "channel": 0,
              "trackIndex": 4,
              "trackName": "Keyboard"
            },
            {
              "id": "midi_0_20160_13",
              "time": 29.999991,
              "duration": 1.2886900895833335,
              "note": "F#4",
              "midi": 66,
              "ticks": 20160,
              "durationTicks": 866,
              "velocity": 0.41732283464566927,
              "channel": 2,
              "trackIndex": 0,
              "trackName": "Violin 1"
            },
            {
              "id": "midi_1_20160_5",
              "time": 29.999991,
              "duration": 1.4568448010416652,
              "note": "A4",
              "midi": 69,
              "ticks": 20160,
              "durationTicks": 979,
              "velocity": 0.4409448818897638,
              "channel": 3,
              "trackIndex": 1,
              "trackName": "Violin 2"
            },
            {
              "id": "midi_3_20160_21",
              "time": 29.999991,
              "duration": 1.4568448010416652,
              "note": "D2",
              "midi": 38,
              "ticks": 20160,
              "durationTicks": 979,
              "velocity": 0.47244094488188976,
              "channel": 1,
              "trackIndex": 3,
              "trackName": "Cello"
            },
            {
              "id": "midi_4_20160_79",
              "time": 29.999991,
              "duration": 1.2886900895833335,
              "note": "A3",
              "midi": 57,
              "ticks": 20160,
              "durationTicks": 866,
              "velocity": 0.44881889763779526,
              "channel": 0,
              "trackIndex": 4,
              "trackName": "Keyboard"
            },
            {
              "id": "midi_4_20160_80",
              "time": 29.999991,
              "duration": 1.2886900895833335,
              "note": "A4",
              "midi": 69,
              "ticks": 20160,
              "durationTicks": 866,
              "velocity": 0.44881889763779526,
              "channel": 0,
              "trackIndex": 4,
              "trackName": "Keyboard"
            },
            {
              "id": "midi_4_20160_81",
              "time": 29.999991,
              "duration": 1.2886900895833335,
              "note": "D2",
              "midi": 38,
              "ticks": 20160,
              "durationTicks": 866,
              "velocity": 0.4645669291338583,
              "channel": 0,
              "trackIndex": 4,
              "trackName": "Keyboard"
            },
            {
              "id": "midi_0_21120_14",
              "time": 31.428562,
              "duration": 1.2886900895833335,
              "note": "G4",
              "midi": 67,
              "ticks": 21120,
              "durationTicks": 866,
              "velocity": 0.36220472440944884,
              "channel": 2,
              "trackIndex": 0,
              "trackName": "Violin 1"
            },
            {
              "id": "midi_1_21120_6",
              "time": 31.428562,
              "duration": 1.4568448010416688,
              "note": "B4",
              "midi": 71,
              "ticks": 21120,
              "durationTicks": 979,
              "velocity": 0.4881889763779528,
              "channel": 3,
              "trackIndex": 1,
              "trackName": "Violin 2"
            },
            {
              "id": "midi_3_21120_22",
              "time": 31.428562,
              "duration": 1.4568448010416688,
              "note": "G2",
              "midi": 43,
              "ticks": 21120,
              "durationTicks": 979,
              "velocity": 0.49606299212598426,
              "channel": 1,
              "trackIndex": 3,
              "trackName": "Cello"
            },
            {
              "id": "midi_4_21120_82",
              "time": 31.428562,
              "duration": 1.2886900895833335,
              "note": "B3",
              "midi": 59,
              "ticks": 21120,
              "durationTicks": 866,
              "velocity": 0.4881889763779528,
              "channel": 0,
              "trackIndex": 4,
              "trackName": "Keyboard"
            },
            {
              "id": "midi_4_21120_83",
              "time": 31.428562,
              "duration": 1.2886900895833335,
              "note": "B4",
              "midi": 71,
              "ticks": 21120,
              "durationTicks": 866,
              "velocity": 0.4881889763779528,
              "channel": 0,
              "trackIndex": 4,
              "trackName": "Keyboard"
            },
            {
              "id": "midi_4_21120_84",
              "time": 31.428562,
              "duration": 1.2886900895833335,
              "note": "G2",
              "midi": 43,
              "ticks": 21120,
              "durationTicks": 866,
              "velocity": 0.49606299212598426,
              "channel": 0,
              "trackIndex": 4,
              "trackName": "Keyboard"
            },
            {
              "id": "midi_0_22080_15",
              "time": 32.857133,
              "duration": 1.2886900895833335,
              "note": "E4",
              "midi": 64,
              "ticks": 22080,
              "durationTicks": 866,
              "velocity": 0.2992125984251969,
              "channel": 2,
              "trackIndex": 0,
              "trackName": "Violin 1"
            },
            {
              "id": "midi_1_22080_7",
              "time": 32.857133,
              "duration": 1.3556543552083369,
              "note": "C#5",
              "midi": 73,
              "ticks": 22080,
              "durationTicks": 911,
              "velocity": 0.5275590551181102,
              "channel": 3,
              "trackIndex": 1,
              "trackName": "Violin 2"
            },
            {
              "id": "midi_3_22080_23",
              "time": 32.857133,
              "duration": 1.3556543552083369,
              "note": "A2",
              "midi": 45,
              "ticks": 22080,
              "durationTicks": 911,
              "velocity": 0.5039370078740157,
              "channel": 1,
              "trackIndex": 3,
              "trackName": "Cello"
            },
            {
              "id": "midi_4_22080_85",
              "time": 32.857133,
              "duration": 1.2886900895833335,
              "note": "C#4",
              "midi": 61,
              "ticks": 22080,
              "durationTicks": 866,
              "velocity": 0.5118110236220472,
              "channel": 0,
              "trackIndex": 4,
              "trackName": "Keyboard"
            },
            {
              "id": "midi_4_22080_86",
              "time": 32.857133,
              "duration": 1.2886900895833335,
              "note": "C#5",
              "midi": 73,
              "ticks": 22080,
              "durationTicks": 866,
              "velocity": 0.5118110236220472,
              "channel": 0,
              "trackIndex": 4,
              "trackName": "Keyboard"
            },
            {
              "id": "midi_4_22080_87",
              "time": 32.857133,
              "duration": 1.2886900895833335,
              "note": "A2",
              "midi": 45,
              "ticks": 22080,
              "durationTicks": 866,
              "velocity": 0.49606299212598426,
              "channel": 0,
              "trackIndex": 4,
              "trackName": "Keyboard"
            },
            {
              "id": "midi_0_23040_16",
              "time": 34.285704,
              "duration": 0.7261902583333324,
              "note": "D4",
              "midi": 62,
              "ticks": 23040,
              "durationTicks": 488,
              "velocity": 0.5433070866141733,
              "channel": 2,
              "trackIndex": 0,
              "trackName": "Violin 1"
            },
            {
              "id": "midi_1_23040_8",
              "time": 34.285704,
              "duration": 1.2886900895833335,
              "note": "D5",
              "midi": 74,
              "ticks": 23040,
              "durationTicks": 866,
              "velocity": 0.4881889763779528,
              "channel": 3,
              "trackIndex": 1,
              "trackName": "Violin 2"
            },
            {
              "id": "midi_2_23040_0",
              "time": 34.285704,
              "duration": 1.4568448010416617,
              "note": "F#5",
              "midi": 78,
              "ticks": 23040,
              "durationTicks": 979,
              "velocity": 0.4330708661417323,
              "channel": 4,
              "trackIndex": 2,
              "trackName": "Violin 3"
            },
            {
              "id": "midi_3_23040_24",
              "time": 34.285704,
              "duration": 1.4568448010416617,
              "note": "D3",
              "midi": 50,
              "ticks": 23040,
              "durationTicks": 979,
              "velocity": 0.49606299212598426,
              "channel": 1,
              "trackIndex": 3,
              "trackName": "Cello"
            },
            {
              "id": "midi_4_23040_88",
              "time": 34.285704,
              "duration": 1.2886900895833335,
              "note": "D5",
              "midi": 74,
              "ticks": 23040,
              "durationTicks": 866,
              "velocity": 0.5039370078740157,
              "channel": 0,
              "trackIndex": 4,
              "trackName": "Keyboard"
            },
            {
              "id": "midi_4_23040_89",
              "time": 34.285704,
              "duration": 1.2886900895833335,
              "note": "F#5",
              "midi": 78,
              "ticks": 23040,
              "durationTicks": 866,
              "velocity": 0.5039370078740157,
              "channel": 0,
              "trackIndex": 4,
              "trackName": "Keyboard"
            },
            {
              "id": "midi_4_23040_90",
              "time": 34.285704,
              "duration": 1.2886900895833335,
              "note": "D3",
              "midi": 50,
              "ticks": 23040,
              "durationTicks": 866,
              "velocity": 0.4881889763779528,
              "channel": 0,
              "trackIndex": 4,
              "trackName": "Keyboard"
            },
            {
              "id": "midi_0_23520_17",
              "time": 34.9999895,
              "duration": 0.67559503541667,
              "note": "F#4",
              "midi": 66,
              "ticks": 23520,
              "durationTicks": 454,
              "velocity": 0.5748031496062992,
              "channel": 2,
              "trackIndex": 0,
              "trackName": "Violin 1"
            },
            {
              "id": "midi_0_24000_18",
              "time": 35.714275,
              "duration": 0.7261902583333324,
              "note": "A4",
              "midi": 69,
              "ticks": 24000,
              "durationTicks": 488,
              "velocity": 0.5826771653543307,
              "channel": 2,
              "trackIndex": 0,
              "trackName": "Violin 1"
            },
            {
              "id": "midi_1_24000_9",
              "time": 35.714275,
              "duration": 1.2886900895833335,
              "note": "C#5",
              "midi": 73,
              "ticks": 24000,
              "durationTicks": 866,
              "velocity": 0.4566929133858268,
              "channel": 3,
              "trackIndex": 1,
              "trackName": "Violin 2"
            },
            {
              "id": "midi_2_24000_1",
              "time": 35.714275,
              "duration": 1.4568448010416688,
              "note": "E5",
              "midi": 76,
              "ticks": 24000,
              "durationTicks": 979,
              "velocity": 0.3937007874015748,
              "channel": 4,
              "trackIndex": 2,
              "trackName": "Violin 3"
            },
            {
              "id": "midi_3_24000_25",
              "time": 35.714275,
              "duration": 1.4568448010416688,
              "note": "A2",
              "midi": 45,
              "ticks": 24000,
              "durationTicks": 979,
              "velocity": 0.4645669291338583,
              "channel": 1,
              "trackIndex": 3,
              "trackName": "Cello"
            },
            {
              "id": "midi_4_24000_91",
              "time": 35.714275,
              "duration": 1.2886900895833335,
              "note": "C#5",
              "midi": 73,
              "ticks": 24000,
              "durationTicks": 866,
              "velocity": 0.49606299212598426,
              "channel": 0,
              "trackIndex": 4,
              "trackName": "Keyboard"
            },
            {
              "id": "midi_4_24000_92",
              "time": 35.714275,
              "duration": 1.2886900895833335,
              "note": "E5",
              "midi": 76,
              "ticks": 24000,
              "durationTicks": 866,
              "velocity": 0.49606299212598426,
              "channel": 0,
              "trackIndex": 4,
              "trackName": "Keyboard"
            },
            {
              "id": "midi_4_24000_93",
              "time": 35.714275,
              "duration": 1.2886900895833335,
              "note": "A2",
              "midi": 45,
              "ticks": 24000,
              "durationTicks": 866,
              "velocity": 0.49606299212598426,
              "channel": 0,
              "trackIndex": 4,
              "trackName": "Keyboard"
            },
            {
              "id": "midi_0_24480_19",
              "time": 36.4285605,
              "duration": 0.6755950354166629,
              "note": "G4",
              "midi": 67,
              "ticks": 24480,
              "durationTicks": 454,
              "velocity": 0.5826771653543307,
              "channel": 2,
              "trackIndex": 0,
              "trackName": "Violin 1"
            },
            {
              "id": "midi_0_24960_20",
              "time": 37.142846,
              "duration": 0.7261902583333324,
              "note": "F#4",
              "midi": 66,
              "ticks": 24960,
              "durationTicks": 488,
              "velocity": 0.5433070866141733,
              "channel": 2,
              "trackIndex": 0,
              "trackName": "Violin 1"
            },
            {
              "id": "midi_1_24960_10",
              "time": 37.142846,
              "duration": 1.2886900895833335,
              "note": "B4",
              "midi": 71,
              "ticks": 24960,
              "durationTicks": 866,
              "velocity": 0.44881889763779526,
              "channel": 3,
              "trackIndex": 1,
              "trackName": "Violin 2"
            },
            {
              "id": "midi_2_24960_2",
              "time": 37.142846,
              "duration": 1.4568448010416688,
              "note": "D5",
              "midi": 74,
              "ticks": 24960,
              "durationTicks": 979,
              "velocity": 0.4566929133858268,
              "channel": 4,
              "trackIndex": 2,
              "trackName": "Violin 3"
            },
            {
              "id": "midi_3_24960_26",
              "time": 37.142846,
              "duration": 1.4568448010416688,
              "note": "B2",
              "midi": 47,
              "ticks": 24960,
              "durationTicks": 979,
              "velocity": 0.48031496062992124,
              "channel": 1,
              "trackIndex": 3,
              "trackName": "Cello"
            },
            {
              "id": "midi_4_24960_94",
              "time": 37.142846,
              "duration": 1.2886900895833335,
              "note": "B4",
              "midi": 71,
              "ticks": 24960,
              "durationTicks": 866,
              "velocity": 0.47244094488188976,
              "channel": 0,
              "trackIndex": 4,
              "trackName": "Keyboard"
            },
            {
              "id": "midi_4_24960_95",
              "time": 37.142846,
              "duration": 1.2886900895833335,
              "note": "D5",
              "midi": 74,
              "ticks": 24960,
              "durationTicks": 866,
              "velocity": 0.47244094488188976,
              "channel": 0,
              "trackIndex": 4,
              "trackName": "Keyboard"
            },
            {
              "id": "midi_4_24960_96",
              "time": 37.142846,
              "duration": 1.2886900895833335,
              "note": "B2",
              "midi": 47,
              "ticks": 24960,
              "durationTicks": 866,
              "velocity": 0.4881889763779528,
              "channel": 0,
              "trackIndex": 4,
              "trackName": "Keyboard"
            },
            {
              "id": "midi_0_25440_21",
              "time": 37.8571315,
              "duration": 0.6755950354166629,
              "note": "D4",
              "midi": 62,
              "ticks": 25440,
              "durationTicks": 454,
              "velocity": 0.5275590551181102,
              "channel": 2,
              "trackIndex": 0,
              "trackName": "Violin 1"
            },
            {
              "id": "midi_0_25920_22",
              "time": 38.571417000000004,
              "duration": 0.7261902583333324,
              "note": "F#4",
              "midi": 66,
              "ticks": 25920,
              "durationTicks": 488,
              "velocity": 0.5826771653543307,
              "channel": 2,
              "trackIndex": 0,
              "trackName": "Violin 1"
            },
            {
              "id": "midi_1_25920_11",
              "time": 38.571417000000004,
              "duration": 1.2886900895833335,
              "note": "A4",
              "midi": 69,
              "ticks": 25920,
              "durationTicks": 866,
              "velocity": 0.47244094488188976,
              "channel": 3,
              "trackIndex": 1,
              "trackName": "Violin 2"
            },
            {
              "id": "midi_2_25920_3",
              "time": 38.571417000000004,
              "duration": 1.4568448010416617,
              "note": "C#5",
              "midi": 73,
              "ticks": 25920,
              "durationTicks": 979,
              "velocity": 0.4566929133858268,
              "channel": 4,
              "trackIndex": 2,
              "trackName": "Violin 3"
            },
            {
              "id": "midi_3_25920_27",
              "time": 38.571417000000004,
              "duration": 1.4568448010416617,
              "note": "F#2",
              "midi": 42,
              "ticks": 25920,
              "durationTicks": 979,
              "velocity": 0.4645669291338583,
              "channel": 1,
              "trackIndex": 3,
              "trackName": "Cello"
            },
            {
              "id": "midi_4_25920_97",
              "time": 38.571417000000004,
              "duration": 1.2886900895833335,
              "note": "A4",
              "midi": 69,
              "ticks": 25920,
              "durationTicks": 866,
              "velocity": 0.4566929133858268,
              "channel": 0,
              "trackIndex": 4,
              "trackName": "Keyboard"
            },
            {
              "id": "midi_4_25920_98",
              "time": 38.571417000000004,
              "duration": 1.2886900895833335,
              "note": "C#5",
              "midi": 73,
              "ticks": 25920,
              "durationTicks": 866,
              "velocity": 0.4566929133858268,
              "channel": 0,
              "trackIndex": 4,
              "trackName": "Keyboard"
            },
            {
              "id": "midi_4_25920_99",
              "time": 38.571417000000004,
              "duration": 1.2886900895833335,
              "note": "F#2",
              "midi": 42,
              "ticks": 25920,
              "durationTicks": 866,
              "velocity": 0.4645669291338583,
              "channel": 0,
              "trackIndex": 4,
              "trackName": "Keyboard"
            },
            {
              "id": "midi_0_26400_23",
              "time": 39.2857025,
              "duration": 0.67559503541667,
              "note": "E4",
              "midi": 64,
              "ticks": 26400,
              "durationTicks": 454,
              "velocity": 0.5511811023622047,
              "channel": 2,
              "trackIndex": 0,
              "trackName": "Violin 1"
            },
            {
              "id": "midi_0_26880_24",
              "time": 39.999988,
              "duration": 0.7261902583333324,
              "note": "D4",
              "midi": 62,
              "ticks": 26880,
              "durationTicks": 488,
              "velocity": 0.5196850393700787,
              "channel": 2,
              "trackIndex": 0,
              "trackName": "Violin 1"
            },
            {
              "id": "midi_1_26880_12",
              "time": 39.999988,
              "duration": 1.2886900895833335,
              "note": "G4",
              "midi": 67,
              "ticks": 26880,
              "durationTicks": 866,
              "velocity": 0.47244094488188976,
              "channel": 3,
              "trackIndex": 1,
              "trackName": "Violin 2"
            },
            {
              "id": "midi_2_26880_4",
              "time": 39.999988,
              "duration": 1.4568448010416688,
              "note": "B4",
              "midi": 71,
              "ticks": 26880,
              "durationTicks": 979,
              "velocity": 0.4645669291338583,
              "channel": 4,
              "trackIndex": 2,
              "trackName": "Violin 3"
            },
            {
              "id": "midi_3_26880_28",
              "time": 39.999988,
              "duration": 1.4568448010416688,
              "note": "G2",
              "midi": 43,
              "ticks": 26880,
              "durationTicks": 979,
              "velocity": 0.49606299212598426,
              "channel": 1,
              "trackIndex": 3,
              "trackName": "Cello"
            },
            {
              "id": "midi_4_26880_100",
              "time": 39.999988,
              "duration": 1.2886900895833335,
              "note": "G4",
              "midi": 67,
              "ticks": 26880,
              "durationTicks": 866,
              "velocity": 0.4330708661417323,
              "channel": 0,
              "trackIndex": 4,
              "trackName": "Keyboard"
            },
            {
              "id": "midi_4_26880_101",
              "time": 39.999988,
              "duration": 1.2886900895833335,
              "note": "B4",
              "midi": 71,
              "ticks": 26880,
              "durationTicks": 866,
              "velocity": 0.4330708661417323,
              "channel": 0,
              "trackIndex": 4,
              "trackName": "Keyboard"
            },
            {
              "id": "midi_4_26880_102",
              "time": 39.999988,
              "duration": 1.2886900895833335,
              "note": "G2",
              "midi": 43,
              "ticks": 26880,
              "durationTicks": 866,
              "velocity": 0.4881889763779528,
              "channel": 0,
              "trackIndex": 4,
              "trackName": "Keyboard"
            },
            {
              "id": "midi_0_27360_25",
              "time": 40.714273500000004,
              "duration": 0.6755950354166629,
              "note": "B3",
              "midi": 59,
              "ticks": 27360,
              "durationTicks": 454,
              "velocity": 0.5196850393700787,
              "channel": 2,
              "trackIndex": 0,
              "trackName": "Violin 1"
            },
            {
              "id": "midi_0_27840_26",
              "time": 41.428559,
              "duration": 0.7261902583333324,
              "note": "D4",
              "midi": 62,
              "ticks": 27840,
              "durationTicks": 488,
              "velocity": 0.5826771653543307,
              "channel": 2,
              "trackIndex": 0,
              "trackName": "Violin 1"
            },
            {
              "id": "midi_1_27840_13",
              "time": 41.428559,
              "duration": 1.2886900895833335,
              "note": "F#4",
              "midi": 66,
              "ticks": 27840,
              "durationTicks": 866,
              "velocity": 0.4094488188976378,
              "channel": 3,
              "trackIndex": 1,
              "trackName": "Violin 2"
            },
            {
              "id": "midi_2_27840_5",
              "time": 41.428559,
              "duration": 1.4568448010416688,
              "note": "A4",
              "midi": 69,
              "ticks": 27840,
              "durationTicks": 979,
              "velocity": 0.44881889763779526,
              "channel": 4,
              "trackIndex": 2,
              "trackName": "Violin 3"
            },
            {
              "id": "midi_3_27840_29",
              "time": 41.428559,
              "duration": 1.4568448010416688,
              "note": "D2",
              "midi": 38,
              "ticks": 27840,
              "durationTicks": 979,
              "velocity": 0.48031496062992124,
              "channel": 1,
              "trackIndex": 3,
              "trackName": "Cello"
            },
            {
              "id": "midi_4_27840_103",
              "time": 41.428559,
              "duration": 1.2886900895833335,
              "note": "F#4",
              "midi": 66,
              "ticks": 27840,
              "durationTicks": 866,
              "velocity": 0.48031496062992124,
              "channel": 0,
              "trackIndex": 4,
              "trackName": "Keyboard"
            },
            {
              "id": "midi_4_27840_104",
              "time": 41.428559,
              "duration": 1.2886900895833335,
              "note": "A4",
              "midi": 69,
              "ticks": 27840,
              "durationTicks": 866,
              "velocity": 0.48031496062992124,
              "channel": 0,
              "trackIndex": 4,
              "trackName": "Keyboard"
            },
            {
              "id": "midi_4_27840_105",
              "time": 41.428559,
              "duration": 1.2886900895833335,
              "note": "D2",
              "midi": 38,
              "ticks": 27840,
              "durationTicks": 866,
              "velocity": 0.4566929133858268,
              "channel": 0,
              "trackIndex": 4,
              "trackName": "Keyboard"
            },
            {
              "id": "midi_0_28320_27",
              "time": 42.1428445,
              "duration": 0.6755950354166629,
              "note": "A4",
              "midi": 69,
              "ticks": 28320,
              "durationTicks": 454,
              "velocity": 0.6456692913385826,
              "channel": 2,
              "trackIndex": 0,
              "trackName": "Violin 1"
            },
            {
              "id": "midi_0_28800_28",
              "time": 42.85713,
              "duration": 0.7261902583333324,
              "note": "G4",
              "midi": 67,
              "ticks": 28800,
              "durationTicks": 488,
              "velocity": 0.5354330708661418,
              "channel": 2,
              "trackIndex": 0,
              "trackName": "Violin 1"
            },
            {
              "id": "midi_1_28800_14",
              "time": 42.85713,
              "duration": 1.2886900895833335,
              "note": "G4",
              "midi": 67,
              "ticks": 28800,
              "durationTicks": 866,
              "velocity": 0.3858267716535433,
              "channel": 3,
              "trackIndex": 1,
              "trackName": "Violin 2"
            },
            {
              "id": "midi_2_28800_6",
              "time": 42.85713,
              "duration": 1.4568448010416688,
              "note": "B4",
              "midi": 71,
              "ticks": 28800,
              "durationTicks": 979,
              "velocity": 0.5039370078740157,
              "channel": 4,
              "trackIndex": 2,
              "trackName": "Violin 3"
            },
            {
              "id": "midi_3_28800_30",
              "time": 42.85713,
              "duration": 1.4568448010416688,
              "note": "G2",
              "midi": 43,
              "ticks": 28800,
              "durationTicks": 979,
              "velocity": 0.49606299212598426,
              "channel": 1,
              "trackIndex": 3,
              "trackName": "Cello"
            },
            {
              "id": "midi_4_28800_106",
              "time": 42.85713,
              "duration": 1.2886900895833335,
              "note": "G4",
              "midi": 67,
              "ticks": 28800,
              "durationTicks": 866,
              "velocity": 0.5039370078740157,
              "channel": 0,
              "trackIndex": 4,
              "trackName": "Keyboard"
            },
            {
              "id": "midi_4_28800_107",
              "time": 42.85713,
              "duration": 1.2886900895833335,
              "note": "B4",
              "midi": 71,
              "ticks": 28800,
              "durationTicks": 866,
              "velocity": 0.5039370078740157,
              "channel": 0,
              "trackIndex": 4,
              "trackName": "Keyboard"
            },
            {
              "id": "midi_4_28800_108",
              "time": 42.85713,
              "duration": 1.2886900895833335,
              "note": "G2",
              "midi": 43,
              "ticks": 28800,
              "durationTicks": 866,
              "velocity": 0.4881889763779528,
              "channel": 0,
              "trackIndex": 4,
              "trackName": "Keyboard"
            },
            {
              "id": "midi_0_29280_29",
              "time": 43.5714155,
              "duration": 0.67559503541667,
              "note": "B4",
              "midi": 71,
              "ticks": 29280,
              "durationTicks": 454,
              "velocity": 0.5511811023622047,
              "channel": 2,
              "trackIndex": 0,
              "trackName": "Violin 1"
            }
          ]
        }
      ]
    }
  ]
}
